# AST/ASF file generated using VICON BodyLanguage
# -----------------------------------------------
:version 1.10
:name VICON
:units
  mass 1.0
  length 0.45
  angle deg
:documentation
   .ast/.asf automatically generated from VICON data using
   VICON BodyBuilder and BodyLanguage model FoxedUp or BRILLIANT.MOD
:root
   order TX TY TZ RX RY RZ
   axis XYZ
   position 0 0 0  
   orientation 0 0 0 
:bonedata
  begin
     id 1 
     name lhipjoint
     direction 0.577973 -0.728611 0.367523 
     length 2.48544 
     axis 0 0 0  XYZ
  end
  begin
     id 2 
     name lfemur
     direction 0.34202 -0.939693 0  
     length 7.1921  
     axis 0 0 20  XYZ
    dof rx ry rz
    limits (-160.0 20.0)
           (-70.0 70.0)
           (-60.0 70.0)
  end
  begin
     id 3 
     name ltibia
     direction 0.34202 -0.939693 0   
     length 7.71059   
     axis 0 0 20   XYZ
    dof rx
    limits (-10.0 170.0)
  end
  begin
     id 4 
     name lfoot
     direction 0.089538 -0.246004 0.965124   
     length 2.19909   
     axis -90 7.62852e-016 20   XYZ
    dof rx rz
    limits (-45.0 90.0)
           (-70.0 20.0)
  end
  begin
     id 5 
     name ltoes
     direction 1.53544e-011 -4.21829e-011 1   
     length 1.10116   
     axis -90 7.62852e-016 20   XYZ
    dof rx
    limits (-90.0 20.0)
  end
  begin
     id 6 
     name rhipjoint
     direction -0.554414 -0.743062 0.374812   
     length 2.4371  
     axis 0 0 0  XYZ 
  end
  begin
     id 7 
     name rfemur
     direction -0.34202 -0.939693 0   
     length 7.47254   
     axis 0 0 -20   XYZ
    dof rx ry rz
    limits (-160.0 20.0)
           (-70.0 70.0)
           (-70.0 60.0)
  end
  begin
     id 8 
     name rtibia
     direction -0.34202 -0.939693 0   
     length 7.65855   
     axis 0 0 -20   XYZ
    dof rx
    limits (-10.0 170.0)
 end
 begin
     id 9 
     name rfoot
     direction -0.133779 -0.367555 0.92033   
     length 2.43006  
     axis -90 -7.62852e-016 -20   XYZ
    dof rx rz
    limits (-45.0 90.0)
           (-20.0 70.0)
  end
  begin
     id 10 
     name rtoes
     direction -1.53563e-011 -4.21889e-011 1   
     length 1.19625   
     axis -90 -7.62852e-016 -20   XYZ
    dof rx
    limits (-90.0 20.0)
  end
  begin
     id 11 
     name lowerback
     direction 0.0249066 0.998043 -0.0573585   
     length 2.08485   
     axis 0 0 0   XYZ
    dof rx ry rz
    limits (-20.0 45.0)
           (-30.0 30.0)
           (-30.0 30.0)
  end
  begin
     id 12 
     name upperback
     direction 0.0237884 0.999673 0.00943178   
     length 2.08515   
     axis 0 0 0   XYZ
    dof rx ry rz
    limits (-20.0 45.0)
           (-30.0 30.0)
           (-30.0 30.0)
  end
  begin
     id 13 
     name thorax
     direction 0.0106671 0.999301 0.0358174   
     length 2.09037   
     axis 0 0 0   XYZ
    dof rx ry rz
    limits (-20.0 45.0)
           (-30.0 30.0)
           (-30.0 30.0)
  end
  begin
     id 14 
     name lowerneck
     direction -0.0580016 0.987052 0.149546   
     length 1.84454   
     axis 0 0 0   XYZ
    dof rx ry rz
    limits (-20.0 45.0)
           (-30.0 30.0)
           (-30.0 30.0)
  end
  begin
     id 15 
     name upperneck
     direction 0.079456 0.981963 -0.171567   
     length 1.88141   
     axis 0 0 0   XYZ
    dof rx ry rz
    limits (-20.0 45.0)
           (-30.0 30.0)
           (-30.0 30.0)
  end
  begin
     id 16
     name head
     direction 0.0262167 0.9967 -0.0768276  
     length 1.89541  
     axis 0 0 0   XYZ
    dof rx ry rz
    limits (-20.0 45.0)
           (-30.0 30.0)
           (-30.0 30.0)
  end
  begin
     id 17 
     name lclavicle
     direction 0.946135 0.322134 -0.0325326  
     length 3.949  
     axis 0 0 0   XYZ
    dof ry rz
    limits (-20.0 10.0)
           (0.0 20.0)
  end
  begin
     id 18 
     name lhumerus
     direction 1 -4.48964e-011 1.94005e-028   
     length 5.10995   
     axis 180 -30 -90   XYZ
    dof rx ry rz
    limits (-60.0 90.0)
           (-90.0 90.0)
           (-90.0 90.0)
  end
  begin
     id 19
     name lradius
     direction 1 -4.48976e-011 2.87852e-027   
     length 3.21207   
     axis 180 -30 -90   XYZ
    dof rx
    limits (-10.0 170.0)
  end
  begin
     id 20
     name lwrist
     direction 1 -4.48963e-011 1.9975e-027   
     length 1.60604   
     axis 2.96054e-016 90 90   XYZ
    dof ry
    limits (-180.0 0.0)
 end
  begin
     id 21 
     name lhand
     direction 1 -4.48919e-011 4.00227e-027   
     length 0.63349   
     axis -2.5488e-015 90 90   XYZ
    dof rx rz
    limits (-90.0 90.0)
           (-45.0 45.0)
  end
  begin
     id 22 
     name lfingers
     direction 1 -4.49037e-011 7.9652e-027   
     length 0.510736   
     axis -5.0975e-015 90 90   XYZ
    dof rx
    limits (0.0 90.0)
  end
  begin
     id 23
     name lthumb
     direction 0.707107 -6.34922e-011 0.707107   
     length 0.733318   
     axis -90 45 -4.48553e-014   XYZ
    dof rx rz
    limits (-45.0 45.0)
           (-45.0 45.0)
  end
  begin
     id 24 
     name rclavicle
     direction -0.940085 0.328911 -0.0897654   
     length 3.93848  
     axis 0 0 0   XYZ 
    dof ry rz
    limits (-10.0 20.0)
           (-20.0 0.0)
  end
  begin
     id 25 
     name rhumerus
     direction -1 -4.48958e-011 3.02044e-027  
     length 5.25109   
     axis 180 30 90   XYZ
    dof rx ry rz
    limits (-90.0 60.0)
           (-90.0 90.0)
           (-90.0 90.0)
  end
  begin
     id 26 
     name rradius
     direction -1 -4.4897e-011 9.78352e-028   
     length 3.28364   
     axis 180 30 90   XYZ
    dof rx
    limits (-10.0 170.0)
  end
  begin
     id 27 
     name rwrist
     direction -1 -4.48943e-011 1.99918e-027   
     length 1.64182   
     axis 2.96054e-016 -90 -90   XYZ
    dof ry
    limits (-180.0 0.0)
  end
  begin
     id 28
     name rhand
     direction -1 -4.49024e-011 3.98478e-027   
     length 0.599745   
     axis -2.5488e-015 -90 -90   XYZ
    dof rx rz
    limits (-90.0 90.0)
           (-45.0 45.0)
  end
  begin
     id 29
     name rfingers
     direction -1 -4.48914e-011 8.00621e-027   
     length 0.48353   
     axis -5.0975e-015 -90 -90   XYZ
    dof rx
    limits (0.0 90.0)
  end
  begin
     id 30
     name rthumb
     direction -0.707107 -6.34992e-011 0.707107   
     length 0.694255   
     axis -90 -45 4.48553e-014   XYZ
    dof rx rz
    limits (-45.0 45.0)
           (-45.0 45.0)
  end
:hierarchy
  begin
    root lhipjoint rhipjoint lowerback
    lhipjoint lfemur
    lfemur ltibia
    ltibia lfoot
    lfoot ltoes
    rhipjoint rfemur
    rfemur rtibia
    rtibia rfoot
    rfoot rtoes
    lowerback upperback
    upperback thorax
    thorax lowerneck lclavicle rclavicle
    lowerneck upperneck
    upperneck head
    lclavicle lhumerus
    lhumerus lradius
    lradius lwrist
    lwrist lhand lthumb
    lhand lfingers
    rclavicle rhumerus
    rhumerus rradius
    rradius rwrist
    rwrist rhand rthumb
    rhand rfingers
  end

#!OML:ASF E:\CV Data\Top Level 1\Subject 1\Session 1\player.ASF
:FULLY-SPECIFIED
:DEGREES
835
root 9.04097 17.2497 -10.1875 14.3899 -74.0198 -6.8188
lowerback 8.10398 0.126967 3.16197
upperback 0.689894 0.489249 1.68284
thorax -3.81881 0.189637 -0.0880539
lowerneck -15.3215 11.8865 -2.76373
upperneck 15.5564 16.7519 0.239807
head 7.00418 7.87454 2.19908
rclavicle 1.64991e-014 7.95139e-015
rhumerus 140.079 137.958 77.6543
rradius 95.8241
rwrist 7.73455
rhand -29.2327 25.7299
rfingers 7.12502
rthumb -2.57649 -4.23428
lclavicle 1.64991e-014 7.95139e-015
lhumerus -41.7829 -35.4553 113.172
lradius 95.2787
lwrist 37.8708
lhand -24.1906 11.4354
lfingers 7.12502
lthumb 2.29328 41.4028
rfemur -35.515 -0.166024 25.0896
rtibia 39.5122
rfoot -10.6905 -7.69748
rtoes 14.7957
lfemur -3.59218 9.97416 -17.642
ltibia 41.9621
lfoot -9.30386 -0.538019
ltoes -10.6645
836
root 9.13023 17.2365 -10.1971 13.8721 -73.4511 -6.06124
lowerback 8.09325 0.0790126 3.02653
upperback 0.662041 0.416264 1.73453
thorax -3.8449 0.155769 0.0496921
lowerneck -15.3797 11.7841 -2.79268
upperneck 15.4929 16.6317 0.169037
head 6.9999 7.81017 2.17178
rclavicle 4.79071e-014 -1.94809e-014
rhumerus 140.183 137.927 77.828
rradius 95.8393
rwrist 7.75607
rhand -29.0212 25.8213
rfingers 7.12502
rthumb -2.37215 -4.14524
lclavicle 4.79071e-014 -1.94809e-014
lhumerus -41.68 -35.3949 113.155
lradius 95.236
lwrist 38.0319
lhand -24.1466 11.3953
lfingers 7.12502
lthumb 2.3358 41.3623
rfemur -36.1932 -0.359866 24.8077
rtibia 39.7177
rfoot -10.4729 -8.02859
rtoes 14.8546
lfemur -2.91208 9.44353 -17.9157
ltibia 40.3554
lfoot -8.7631 -0.0980811
ltoes -11.948
837
root 9.22197 17.2196 -10.207 13.4556 -72.8891 -5.40439
lowerback 8.09878 0.0349965 2.88089
upperback 0.630477 0.348779 1.79835
thorax -3.88352 0.124755 0.20517
lowerneck -15.4242 11.677 -2.8428
upperneck 15.4168 16.5062 0.112348
head 6.98618 7.74423 2.14938
rclavicle -4.46272e-014 7.95139e-016
rhumerus 140.288 137.886 78.0124
rradius 95.8509
rwrist 7.78629
rhand -28.7926 25.9737
rfingers 7.12502
rthumb -2.15136 -3.99524
lclavicle -4.46272e-014 7.95139e-016
lhumerus -41.5786 -35.3312 113.147
lradius 95.1937
lwrist 38.1873
lhand -24.103 11.3311
lfingers 7.12502
lthumb 2.37793 41.2976
rfemur -36.9072 -0.557049 24.5415
rtibia 39.966
rfoot -10.2623 -8.34984
rtoes 14.9198
lfemur -2.24685 8.87107 -18.1826
ltibia 38.7178
lfoot -8.69238 0.368694
ltoes -14.1719
838
root 9.31641 17.1986 -10.2177 13.1663 -72.3321 -4.87343
lowerback 8.12565 -0.00537845 2.73856
upperback 0.591559 0.287857 1.87311
thorax -3.94119 0.0968636 0.369546
lowerneck -15.46 11.5713 -2.87885
upperneck 15.3339 16.3793 0.053009
head 6.97019 7.67855 2.12326
rclavicle 4.17448e-014 3.97569e-015
rhumerus 140.395 137.843 78.1997
rradius 95.8551
rwrist 7.85426
rhand -28.5724 26.1643
rfingers 7.12502
rthumb -1.93875 -3.80664
lclavicle 4.17448e-014 3.97569e-015
lhumerus -41.4879 -35.2755 113.146
lradius 95.1517
lwrist 38.2884
lhand -24.1505 11.2154
lfingers 7.12502
lthumb 2.33202 41.1824
rfemur -37.659 -0.753795 24.3043
rtibia 40.2547
rfoot -10.056 -8.66441
rtoes 14.9809
lfemur -1.61203 8.25187 -18.424
ltibia 37.066
lfoot -9.15073 0.831733
ltoes -16.8892
839
root 9.4131 17.174 -10.2297 12.9921 -71.8148 -4.47464
lowerback 8.19072 -0.0308074 2.58257
upperback 0.552208 0.247381 1.96255
thorax -4.02021 0.0793233 0.554719
lowerneck -15.484 11.4698 -2.89833
upperneck 15.2359 16.2545 -0.0131304
head 6.94917 7.61495 2.0916
rclavicle 7.48424e-014 8.34896e-015
rhumerus 140.505 137.79 78.3909
rradius 95.8501
rwrist 7.96099
rhand -28.3713 26.3686
rfingers 7.12502
rthumb -1.74447 -3.60399
lclavicle 7.48424e-014 8.34896e-015
lhumerus -41.4039 -35.2191 113.161
lradius 95.1027
lwrist 38.2961
lhand -24.1864 11.1162
lfingers 7.12502
lthumb 2.2973 41.0836
rfemur -38.4266 -0.925784 24.0984
rtibia 40.5791
rfoot -9.85285 -8.96188
rtoes 15.0482
lfemur -0.994232 7.62388 -18.6364
ltibia 35.4218
lfoot -10.0789 1.29838
ltoes -19.6184
840
root 9.51172 17.1461 -10.2432 12.9277 -71.366 -4.21359
lowerback 8.30534 -0.0282296 2.41154
upperback 0.516496 0.244547 2.06281
thorax -4.12282 0.080719 0.755516
lowerneck -15.4986 11.369 -2.9067
upperneck 15.1236 16.1276 -0.0820389
head 6.92307 7.55142 2.05614
rclavicle 2.22639e-014 9.54166e-015
rhumerus 140.62 137.729 78.5836
rradius 95.8374
rwrist 8.09623
rhand -28.2026 26.5601
rfingers 7.12502
rthumb -1.58158 -3.41374
lclavicle 2.22639e-014 9.54166e-015
lhumerus -41.3335 -35.1672 113.202
lradius 95.0426
lwrist 38.1853
lhand -24.3864 10.9456
lfingers 7.12502
lthumb 2.10419 40.915
rfemur -39.1935 -1.05725 23.9284
rtibia 40.9287
rfoot -9.64719 -9.23061
rtoes 15.131
lfemur -0.399096 7.0409 -18.8152
ltibia 33.8168
lfoot -11.3137 1.76102
ltoes -21.9729
841
root 9.61184 17.1154 -10.259 12.9173 -71.0095 -4.03288
lowerback 8.46286 0.0122775 2.19646
upperback 0.492014 0.28888 2.16841
thorax -4.23807 0.10648 0.981278
lowerneck -15.5068 11.2682 -2.90341
upperneck 14.991 15.9984 -0.16074
head 6.89107 7.48743 2.01465
rclavicle 1.0138e-014 -2.54444e-014
rhumerus 140.755 137.656 78.779
rradius 95.8134
rwrist 8.23569
rhand -28.1847 26.7288
rfingers 7.12502
rthumb -1.56428 -3.24525
lclavicle 1.0138e-014 -2.54444e-014
lhumerus -41.2636 -35.1365 113.255
lradius 94.9745
lwrist 37.9607
lhand -24.5356 10.8422
lfingers 7.12502
lthumb 1.96009 40.813
rfemur -39.9566 -1.13073 23.7774
rtibia 41.2959
rfoot -9.43243 -9.4697
rtoes 15.2116
lfemur 0.154122 6.5482 -18.9757
ltibia 32.2825
lfoot -12.6543 2.19977
ltoes -23.6544
842
root 9.71303 17.0827 -10.277 12.9365 -70.747 -3.91169
lowerback 8.6617 0.0904254 1.94075
upperback 0.483078 0.379424 2.27342
thorax -4.36139 0.156132 1.22369
lowerneck -15.5196 11.1674 -2.89557
upperneck 14.8475 15.8676 -0.237689
head 6.85643 7.42345 1.97276
rclavicle -2.0276e-014 -4.77083e-015
rhumerus 140.908 137.566 78.9708
rradius 95.7814
rwrist 8.34801
rhand -28.2338 26.8421
rfingers 7.12502
rthumb -1.61169 -3.13154
lclavicle -2.0276e-014 -4.77083e-015
lhumerus -41.185 -35.1184 113.308
lradius 94.903
lwrist 37.653
lhand -24.7061 10.7592
lfingers 7.12502
lthumb 1.79543 40.7314
rfemur -40.7055 -1.1518 23.6407
rtibia 41.6737
rfoot -9.20808 -9.6718
rtoes 15.3014
lfemur 0.652037 6.17191 -19.122
ltibia 30.8522
lfoot -13.9531 2.61306
ltoes -24.662
843
root 9.81463 17.0488 -10.2975 12.924 -70.5827 -3.78021
lowerback 8.89203 0.207536 1.62276
upperback 0.490329 0.514534 2.36502
thorax -4.48768 0.229337 1.48134
lowerneck -15.5376 11.0654 -2.8802
upperneck 14.6946 15.7325 -0.310975
head 6.81982 7.35842 1.93049
rclavicle -3.65764e-014 -3.18055e-015
rhumerus 141.077 137.467 79.1404
rradius 95.7371
rwrist 8.41862
rhand -28.3304 26.9108
rfingers 7.12502
rthumb -1.70502 -3.06214
lclavicle -3.65764e-014 -3.18055e-015
lhumerus -41.1056 -35.1168 113.351
lradius 94.8318
lwrist 37.2998
lhand -24.9095 10.7019
lfingers 7.12502
lthumb 1.59899 40.6757
rfemur -41.4439 -1.11316 23.4934
rtibia 42.0598
rfoot -8.97365 -9.84428
rtoes 15.4039
lfemur 1.07455 5.94518 -19.2741
ltibia 29.5519
lfoot -15.1258 2.99764
ltoes -24.9544
844
root 9.91636 17.0145 -10.3195 12.8424 -70.4559 -3.57853
lowerback 9.12347 0.338585 1.26352
upperback 0.509466 0.661405 2.43553
thorax -4.60457 0.309499 1.73823
lowerneck -15.5705 10.9617 -2.86721
upperneck 14.541 15.5932 -0.367391
head 6.78374 7.29267 1.89415
rclavicle 2.46493e-014 1.43125e-014
rhumerus 141.257 137.36 79.2788
rradius 95.6764
rwrist 8.44166
rhand -28.4793 26.9497
rfingers 7.12502
rthumb -1.84878 -3.022
lclavicle 2.46493e-014 1.43125e-014
lhumerus -41.0217 -35.138 113.373
lradius 94.7604
lwrist 36.9501
lhand -25.0925 10.6821
lfingers 7.12502
lthumb 1.42225 40.6571
rfemur -42.1867 -1.06256 23.3201
rtibia 42.4521
rfoot -8.73827 -10.0005
rtoes 15.5376
lfemur 1.38746 5.84098 -19.4417
ltibia 28.4026
lfoot -16.1832 3.3398
ltoes -24.8514
845
root 10.0174 16.98 -10.3424 12.6424 -70.3516 -3.2562
lowerback 9.35017 0.475185 0.853289
upperback 0.5409 0.807294 2.48263
thorax -4.70844 0.390468 1.99899
lowerneck -15.6191 10.8563 -2.8571
upperneck 14.3862 15.4501 -0.409872
head 6.7484 7.22608 1.86299
rclavicle -2.38542e-014 7.95139e-015
rhumerus 141.44 137.247 79.3767
rradius 95.5886
rwrist 8.42218
rhand -28.6393 26.977
rfingers 7.12502
rthumb -2.00339 -2.99334
lclavicle -2.38542e-014 7.95139e-015
lhumerus -40.934 -35.1328 113.382
lradius 94.6821
lwrist 36.6139
lhand -25.3688 10.603
lfingers 7.12502
lthumb 1.15539 40.5796
rfemur -42.9268 -1.01551 23.1032
rtibia 42.8474
rfoot -8.50492 -10.1461
rtoes 15.6787
lfemur 1.59127 5.85617 -19.6482
ltibia 27.4181
lfoot -17.1603 3.65676
ltoes -24.4361
846
root 10.1173 16.9458 -10.3668 12.3268 -70.272 -2.80463
lowerback 9.56382 0.620528 0.390448
upperback 0.579697 0.955789 2.50133
thorax -4.80003 0.473991 2.25894
lowerneck -15.6963 10.7494 -2.83383
upperneck 14.2432 15.3022 -0.443286
head 6.72187 7.15773 1.8346
rclavicle -2.40529e-014 -1.27222e-014
rhumerus 141.619 137.149 79.4237
rradius 95.4662
rwrist 8.37691
rhand -28.8247 27.004
rfingers 7.12502
rthumb -2.18239 -2.96461
lclavicle -2.40529e-014 -1.27222e-014
lhumerus -40.858 -35.144 113.363
lradius 94.6083
lwrist 36.331
lhand -25.7277 10.4997
lfingers 7.12502
lthumb 0.808738 40.4779
rfemur -43.6707 -0.963706 22.8397
rtibia 43.2395
rfoot -8.27605 -10.2849
rtoes 15.8537
lfemur 1.6715 6.0169 -19.8962
ltibia 26.6044
lfoot -18.0784 3.94172
ltoes -23.7178
